<?xml version="1.0" encoding="iso-8859-1"?>
<!-- Uploaded to: SVG Repo, www.svgrepo.com, Generator: SVG Repo Mixer Tools -->
<svg height="800px" width="800px" version="1.1" id="Layer_1" xmlns="http://www.w3.org/2000/svg" xmlns:xlink="http://www.w3.org/1999/xlink" 
	 viewBox="0 0 508.2 508.2" xml:space="preserve">
<path style="fill:#FFFFFF;" d="M226.4,233.2V40.9c0-6.9-5.6-12.5-12.5-12.5H40.8c-6.9,0-12.5,5.6-12.5,12.5v326.9
	c0,6.9,5.6,12.5,12.5,12.5H187c-3.1-2.6-5-6.5-5-10.8v-49c0-6.5,4.5-12.2,10.8-13.7l36.5-8.9c0.2-0.5,0.4-1,0.6-1.5l-19.5-32.1
	c-3.4-5.6-2.5-12.7,2.1-17.3L226.4,233.2z"/>
<path style="fill:#FFC10D;" d="M436.8,314.4c-1.4-4.1-3.1-8.3-5.2-12.5c-2.2-4.3-2-9.5,0.6-13.6l17.7-29l-19-19l-29,17.7
	c-4.1,2.5-9.3,2.7-13.6,0.6c-4.2-2.1-8.4-3.8-12.5-5.2c-4.6-1.5-8.1-5.3-9.2-10l-8-33h-26.8l-8,33c-1.1,4.7-4.6,8.5-9.2,10
	c-4.2,1.4-8.4,3.1-12.5,5.2c-4.3,2.2-9.5,2-13.6-0.6l-29-17.7l-19,19l17.7,29c2.5,4.1,2.7,9.3,0.6,13.6c-2.1,4.2-3.8,8.4-5.2,12.5
	c-1.5,4.6-5.3,8.1-10.1,9.2l-33,8v26.8l33,8c4.7,1.1,8.5,4.6,10,9.2c1.4,4.1,3.1,8.3,5.2,12.5c2.2,4.3,2,9.5-0.6,13.7l-17.7,29
	l19,19l29-17.7c4.1-2.5,9.3-2.7,13.6-0.6c4.2,2.1,8.4,3.8,12.5,5.2c4.6,1.5,8.1,5.3,9.2,10l8,33h26.8l8-33c1.1-4.7,4.6-8.5,9.2-10
	c4.2-1.4,8.4-3.1,12.5-5.2c4.3-2.2,9.5-2,13.6,0.6l29,17.7l19-19l-17.7-29c-2.5-4.2-2.7-9.3-0.6-13.7c2.1-4.2,3.8-8.4,5.2-12.5
	c1.5-4.6,5.3-8.1,10.1-9.2l33-8v-26.8l-33-8C442.1,322.5,438.3,319,436.8,314.4z"/>
<polygon style="fill:#56ACE0;" points="56.4,56.5 56.4,352.1 196.1,352.1 198.1,239 198.1,56.5 "/>
<path style="fill:#FFFFFF;" d="M379.6,345.1c0-19.1-15.5-34.6-34.6-34.6s-34.6,15.5-34.6,34.6c0,19.1,15.5,34.6,34.6,34.6
	S379.6,364.2,379.6,345.1z"/>
<g>
	<path style="fill:#194F82;" d="M345,282.3c-34.6,0-62.8,28.2-62.8,62.8s28.2,62.8,62.8,62.8s62.8-28.2,62.8-62.8
		S379.6,282.3,345,282.3z M310.4,345.1c0-19.1,15.5-34.6,34.6-34.6s34.6,15.5,34.6,34.6c0,19.1-15.5,34.6-34.6,34.6
		S310.4,364.2,310.4,345.1z"/>
	<path style="fill:#194F82;" d="M497.2,306.9l-36.5-8.9c-0.2-0.5-0.4-1-0.6-1.5l19.5-32.1c3.4-5.6,2.5-12.7-2.1-17.3l-34.6-34.6
		c-4.6-4.6-11.7-5.5-17.3-2.1l-32.1,19.5c-0.5-0.2-1-0.4-1.5-0.6l-8.9-36.5c-1.5-6.3-7.2-10.8-13.7-10.8h-49
		c-6.5,0-12.2,4.5-13.7,10.8l-8.9,36.5c-0.5,0.2-1,0.4-1.5,0.6l-32.1-19.5c-3-1.8-6.5-2.3-9.8-1.7V40.9c0-22.5-18.3-40.8-40.8-40.8
		H40.8C18.3,0.1,0,18.4,0,40.9v326.9c0,22.5,18.3,40.8,40.8,40.8h180l-10.4,17.1c-3.4,5.6-2.5,12.7,2.1,17.3l34.6,34.6
		c4.6,4.6,11.7,5.5,17.3,2.1l32.1-19.5c0.5,0.2,1,0.4,1.5,0.6l8.9,36.5c1.5,6.3,7.2,10.8,13.7,10.8h49c6.5,0,12.2-4.5,13.7-10.8
		l8.9-36.5c0.5-0.2,1-0.4,1.5-0.6l32.1,19.5c5.6,3.4,12.7,2.5,17.3-2.1l34.6-34.6c4.6-4.6,5.5-11.8,2.1-17.3l-19.5-32.1
		c0.2-0.5,0.4-1,0.6-1.5l36.5-8.9c6.3-1.5,10.8-7.2,10.8-13.7v-49C508,314.1,503.5,308.4,497.2,306.9z M479.8,358.5l-33,8
		c-4.7,1.1-8.5,4.6-10.1,9.2c-1.4,4.1-3.1,8.4-5.2,12.5c-2.2,4.3-2,9.5,0.6,13.7l17.7,29l-19,19l-29-17.7c-4.1-2.5-9.3-2.7-13.6-0.6
		c-4.2,2.1-8.4,3.8-12.5,5.2c-4.6,1.5-8.1,5.3-9.2,10l-8,33h-26.8l-8-33c-1.1-4.7-4.6-8.5-9.2-10c-4.2-1.4-8.4-3.1-12.5-5.2
		c-4.3-2.2-9.5-2-13.6,0.6l-29,17.7l-19-19l17.7-29c2.5-4.2,2.7-9.3,0.6-13.7c-2.1-4.2-3.8-8.4-5.2-12.5c-1.5-4.6-5.3-8.1-10-9.2
		l-33-8v-26.8l33-8c4.7-1.1,8.5-4.6,10.1-9.2c1.4-4.1,3.1-8.3,5.2-12.5c2.2-4.3,2-9.5-0.6-13.6l-17.7-29l19-19l29,17.7
		c4.1,2.5,9.3,2.7,13.6,0.6c4.2-2.1,8.4-3.8,12.5-5.2c4.6-1.5,8.1-5.3,9.2-10l8-33h26.8l8,33c1.2,4.7,4.6,8.5,9.2,10
		c4.1,1.4,8.3,3.1,12.5,5.2c4.3,2.2,9.5,2,13.6-0.6l29-17.7l19,19l-17.7,29c-2.5,4.1-2.7,9.3-0.6,13.6c2.1,4.2,3.8,8.4,5.2,12.5
		c1.5,4.6,5.3,8.1,10.1,9.2l33,8v26.8H479.8z M187,380.4H40.8c-6.9,0-12.5-5.6-12.5-12.5v-327c0-6.9,5.6-12.5,12.5-12.5h173.1
		c6.9,0,12.5,5.6,12.5,12.5v192.3l-14,14c-4.6,4.6-5.5,11.8-2.1,17.3l19.5,32.1c-0.2,0.5-0.4,1-0.6,1.5l-36.5,8.9
		c-6.3,1.5-10.8,7.2-10.8,13.7v49C182,373.9,183.9,377.7,187,380.4z"/>
	<path style="fill:#194F82;" d="M187.2,146.2c0-7.8-6.3-14.1-14.1-14.1H81.5c-7.8,0-14.1,6.3-14.1,14.1s6.3,14.1,14.1,14.1H173
		C180.9,160.3,187.2,154,187.2,146.2z"/>
	<path style="fill:#194F82;" d="M81.5,95H173c7.8,0,14.1-6.3,14.1-14.1s-6.3-14.1-14.1-14.1H81.5c-7.8,0-14.1,6.3-14.1,14.1
		S73.7,95,81.5,95z"/>
</g>
<path style="fill:#FFFFFF;" d="M127.3,249.7c-6.9,0-12.5,5.6-12.5,12.5c0,6.9,5.6,12.5,12.5,12.5c6.9,0,12.5-5.6,12.5-12.5
	C139.8,255.3,134.2,249.7,127.3,249.7z"/>
<path style="fill:#194F82;" d="M127.3,221.5c-22.5,0-40.8,18.3-40.8,40.8c0,22.5,18.3,40.8,40.8,40.8s40.8-18.3,40.8-40.8
	C168.1,239.8,149.8,221.5,127.3,221.5z M127.3,274.8c-6.9,0-12.5-5.6-12.5-12.5c0-6.9,5.6-12.5,12.5-12.5c6.9,0,12.5,5.6,12.5,12.5
	C139.8,269.1,134.2,274.8,127.3,274.8z"/>
</svg>